<svg id="Layer_1" data-name="Layer 1" xmlns="http://www.w3.org/2000/svg" viewBox="0 0 386.2 305"><defs><style>.cls-1{fill:#1b1464;}.cls-2{fill:#d9e021;}.cls-3,.cls-4{fill:none;stroke-miterlimit:10;}.cls-3{stroke:#1b1464;}.cls-4{stroke:#d9e021;}</style></defs><path class="cls-1" d="M261,304.6c0,16-5.1,27.9-15.2,35.8a53.4,53.4,0,0,1-34.3,11.9c-12.8,0-23.4-2.8-31.8-8.6s-12.5-13.6-12.5-23.3v-.2a32.6,32.6,0,0,1,2.2-12.6,19.6,19.6,0,0,1,5.4-7.9c4.3-3.5,8.1-5.4,11.7-5.7l2.3-.2a19.5,19.5,0,0,1,10,2.7,8.1,8.1,0,0,1,4.4,7.3,4.6,4.6,0,0,1-2.5,3.9,12.5,12.5,0,0,0-4.4,4.7,15.6,15.6,0,0,0-2.1,5.2l-.3,2.2c0,7.9,3.6,13.2,10.9,15.8A20.8,20.8,0,0,0,211,337c7.2,0,12.9-2.2,17.3-6.5s6.5-9.8,6.5-16.4-3.4-14.3-10.1-19.3a88.3,88.3,0,0,0-16.5-9.2c-5.9-2.4-9.9-4.2-12-5.2s-4.3-2.3-6.6-3.7a52.5,52.5,0,0,1-7.8-6.1c-6.3-5.4-9.4-12.8-9.4-22.1S175,231.4,180,225c9.1-11.6,22.8-17.4,41-17.4,9.6,0,17.7,1.9,24.4,5.6s9.9,8.8,9.9,15.3a17.1,17.1,0,0,1-4,11.7,12.9,12.9,0,0,1-10.2,4.7,14.7,14.7,0,0,1-5.8-1.2c-1.9-.8-2.8-1.9-2.8-3.5l.8-6c0-6-2.4-9.9-7-11.5a30.1,30.1,0,0,0-8.4-1.8h-.2a26.6,26.6,0,0,0-10.2,1.8,15.5,15.5,0,0,0-6.2,4.6,24.7,24.7,0,0,0-4.7,11.9c0,5,2.2,9.2,6.6,12.8a66.9,66.9,0,0,0,16.1,9.4c6.3,2.6,12.6,5.5,19,8.6a45.9,45.9,0,0,1,16,13.5C258.8,289.4,261,296.4,261,304.6Z" transform="translate(-166.9 -207.6)"/><path class="cls-2" d="M372,499.5l.9,2.5c0,1.7-1.6,2.6-4.8,2.6-11.4,0-17.8-2.8-19.4-8.4-.2-.7-.5-1-1-1a2.1,2.1,0,0,0-1.5.8c-4.5,5.3-11.6,8-21.2,8a44.5,44.5,0,0,1-16.5-3.5,18.8,18.8,0,0,1-8.6-7.5,24.9,24.9,0,0,1-3.3-13.2l3.3-42.7c0-9-1-15.4-3.1-19.1a7.3,7.3,0,0,1-.6-1.4c-3.5-2.9-5.2-6.1-5.2-9.6s2.5-12.1,7.4-23.1,7.4-18.2,7.4-21.9-1.6-11.1-5-21.4c-4.3-13.4-7.7-24.3-10.3-32.7a158.8,158.8,0,0,0-8.2-22.1c-2.9-6.5-5-10.2-6.3-11.4l-2-1.6c-1.4-.8-2.1-1.8-2.1-2.8s2.8-4.2,8.5-6.3,10.6-3.2,14.9-3.2c1.9,0,3.6,1.8,4.9,5.3,2.3,6.9,4.9,16.5,7.6,28.7,6.6,25,10.8,37.5,12.5,37.5s3.5-5.2,7.1-15.5,5.3-18.6,5.3-24.9c0-11-2.8-17.5-8.5-19.4a2.2,2.2,0,0,1-2-2.2c0-2.7,3.1-5.2,9.2-7.6s11.6-3.7,16.6-3.7,6.4,3.2,6.4,9.5a64.6,64.6,0,0,1-2.7,17,122.8,122.8,0,0,1-5.1,15.3c-1.6,3.8-5.4,12.5-11.6,26.1s-11.3,25.5-15.3,35.8a114.6,114.6,0,0,0-6.1,26.7c-.8,7.5-.8,9.7-.5,11.1,1.2,7,5.5,12.5,8.4,16.1s5.8,6.6,5.8,12c0,3.2-1.6,10.7-4.6,22.2s-4.5,19.8-4.5,24.7,1.2,8.6,3.7,11.2,5.8,3.9,10.1,3.9a13.5,13.5,0,0,0,10.3-4.1,16.2,16.2,0,0,0,4.4-8.2l.6-4.1c.6-4.5.9-12.5.9-23.9s-.4-18.7-1.2-21.8a33.5,33.5,0,0,1-1.2-5.8c0-3.2,2.9-5.8,8.8-7.7a55.6,55.6,0,0,1,15.9-2.8q3.3,0,3.3,2.4c-2.6,14-4,31.9-4,53.6C369.8,483.9,370.6,494.4,372,499.5Z" transform="translate(-166.9 -207.6)"/><path class="cls-1" d="M426.6,321.5a32.5,32.5,0,0,1-3.2,14.7c-2.2,4.1-4.6,7.2-7.4,9.1a33.7,33.7,0,0,1-9.7,4.7,43.9,43.9,0,0,1-13.5,2.3c-8.4,0-15.5-1.6-21-4.9s-8.4-8.6-8.4-15.9c0-4.3,1.1-7.8,3.5-10.6a17,17,0,0,1,13.1-6c1.5,0,2.3.7,2.3,2.1a28.1,28.1,0,0,1-.9,3.1,23.6,23.6,0,0,0-.9,7.1,10.7,10.7,0,0,0,3.4,7.6,11.7,11.7,0,0,0,8.4,3.3c3.2,0,5.8-.5,7.7-1.7a8.6,8.6,0,0,0,4.1-4.1,15,15,0,0,0,1.8-6.7c0-3.7-1.9-7-5.7-9.7a47.8,47.8,0,0,0-12.5-6.5,31.7,31.7,0,0,1-12.4-7.8,18,18,0,0,1-5.7-13.6c0-9.4,3-16.4,8.9-21.1s13.9-7,24.1-7a53.4,53.4,0,0,1,13.9,1.9c4.9,1.2,7.3,3.3,7.3,6.2a21.6,21.6,0,0,1-1.4,8.1c-1,2.5-2.2,3.7-3.6,3.7a1.6,1.6,0,0,1-1.6-.9,8.3,8.3,0,0,0-1.3-2,17.2,17.2,0,0,0-4.7-3,14.2,14.2,0,0,0-6.4-1.9h-3.5l-3,.6a16.4,16.4,0,0,0-3.9,1.4,8.1,8.1,0,0,0-4.5,7.4,6.5,6.5,0,0,0,1.4,4.6l2.1,2.3a15.5,15.5,0,0,0,2.7,1.8l2.8,1.5,3.5,1.7,3.5,1.6C419.7,301.5,426.6,310.4,426.6,321.5Z" transform="translate(-166.9 -207.6)"/><rect class="cls-3" x="278" y="45.9" width="94.8" height="94.76"/><path class="cls-1" d="M279.8,500.5c-6.6,0-13.3-3.4-20.3-10.2Q282,470.4,282,428.5c0-16.7-3.3-31.6-10.1-44.7a41.2,41.2,0,0,0-16.2-16.4c-7.1-4-15.7-6-25.5-6a56.1,56.1,0,0,0-14.4,2.3,43.2,43.2,0,0,0-11.1,5,39.6,39.6,0,0,0-9.9,9.8,41.8,41.8,0,0,0-7.2,15.5l-.9,1.1-.7-.3a5,5,0,0,0-1.6-.5,10.5,10.5,0,0,0-3-.3,3,3,0,0,0-2.8,1.7l-2.9,5.1c-2.1,3.4-4,9.2-6,17.4a122.5,122.5,0,0,0-2.8,27.3c0,17,4.3,31.1,13,42.2s22.2,16.7,40.6,16.7a62.4,62.4,0,0,0,21.2-3.8l1.5,5.5a6.4,6.4,0,0,0,2.2,4A9.2,9.2,0,0,0,250,512l7.1.6a40.9,40.9,0,0,0,17.4-3.7c5.5-2.4,8.2-4.6,8.2-6.7S281.7,500.5,279.8,500.5Zm-34-25.4c-6.3-5.6-12.4-8.4-18.5-8.4-2.9,0-4.4.7-4.4,2.2a2.1,2.1,0,0,0,.7,1.5l1.7,1.4c3.7,2.9,7.2,7.7,10.6,14.4a23,23,0,0,1-12.6,3.5,21.3,21.3,0,0,1-12-3.4,24.6,24.6,0,0,1-7.9-8.2,45.1,45.1,0,0,1-4.4-11.3,74.8,74.8,0,0,1-2.1-11.3c-.3-3.2-.5-6.1-.5-8.8s.1-4.7.2-6.1.7-1.4,2-1.4a18.5,18.5,0,0,0,10.8-4.8,12.5,12.5,0,0,0,4.5-9.8,2.6,2.6,0,0,0-2-2.6c-5.3-1.8-8-7.3-8-16.4s3.1-16.8,9.3-22.7a17.4,17.4,0,0,1,12.6-5.1,20.6,20.6,0,0,1,13.6,5.4q14.8,12.9,14.8,52.3C254.2,451.8,251.5,465,245.8,475.1Z" transform="translate(-166.9 -207.6)"/><path class="cls-1" d="M469.1,451.7c0,15.9-4.8,28.7-14.4,38.6s-23.6,14.9-41.9,14.9a91.4,91.4,0,0,1-15.6-1.4l-2.2-.4c-1.9-.5-3-1.4-3.3-2.8s-.7-9.1-.7-19.2l1.3-63.2a210.9,210.9,0,0,0-.9-22.5L391,393a23.6,23.6,0,0,0-2.5-9.4c-1.4-2.6-2.8-4.3-4.1-5l-1.8-1q-1.5-.7-1.5-1.8c0-1.9,3.7-4.2,11-6.9s12.7-4,16.1-4,5.2.8,5.3,2.3a287.9,287.9,0,0,1,1.6,34L414,448c0,20.4.6,34.5,1.9,42.3.2,1.8,2.5,2.8,7,2.8a19.4,19.4,0,0,0,11.6-3.4,21.4,21.4,0,0,0,7.3-8.7,54.8,54.8,0,0,0,4.4-22.1,47.5,47.5,0,0,0-1.8-12.3c-2.1-8.5-6.5-12.9-13.2-12.9l-5.1,1.2c-2.7,0-4-2.1-4-6.5a12.3,12.3,0,0,1,5.4-10.5c3.6-2.7,8.2-4,13.8-4a23.9,23.9,0,0,1,9.9,2.4,29.2,29.2,0,0,1,8.9,6.1c2.3,2.3,4.4,6.1,6.3,11.3A54.1,54.1,0,0,1,469.1,451.7Z" transform="translate(-166.9 -207.6)"/><path class="cls-1" d="M505.7,468.5a89.1,89.1,0,0,0,22.3-4.7c6.3-2.3,11-4.8,13.9-7.4a33.1,33.1,0,0,0,7.1-8.8c1.7-3.3,2.8-5.7,3.1-7.3a54,54,0,0,0,.4-6.6,17.3,17.3,0,0,0-2.9-8.9c-4.7-8.2-13.7-12.3-26.9-12.3s-25.5,4.9-32.7,14.8a55.7,55.7,0,0,0-11,33.9c0,12.6,3,23.1,8.9,31.3s15,12.3,27.3,12.3a53.6,53.6,0,0,0,13.9-2,36.9,36.9,0,0,0,10.1-4.2,24.5,24.5,0,0,0,7.7-8.2,24,24,0,0,0,3.4-13,10.2,10.2,0,0,0-.9-3.3c-.6-1.4-1.4-2.1-2.3-2.1a2.5,2.5,0,0,0-2.3,1.6,23.9,23.9,0,0,1-5.8,7.2,24.5,24.5,0,0,1-16.1,5.4c-6.3,0-11.1-1.8-14.3-5.4a28.5,28.5,0,0,1-3.2-5.8,13.9,13.9,0,0,1-1.4-5.2C504,468.9,504.6,468.5,505.7,468.5Zm-3.3-12.1-.2-4.9c0-9.6,2.4-17.3,7.3-23a14,14,0,0,1,11.4-5.5c6.4,0,9.5,3.6,9.5,10.6l-.2,2.3c-.3,3.5-2.2,7.7-5.7,12.5a22.5,22.5,0,0,1-8,5.9,32.7,32.7,0,0,1-12.3,3.3Q502.4,457.6,502.4,456.4Z" transform="translate(-166.9 -207.6)"/><rect class="cls-4" x="291" y="60.8" width="94.8" height="94.76"/></svg>